<?xml version="1.0" encoding="UTF-8"?>
<!DOCTYPE svg PUBLIC "-//W3C//DTD SVG 1.1//EN" "http://www.w3.org/Graphics/SVG/1.1/DTD/svg11.dtd">
<svg version="1.1" xmlns="http://www.w3.org/2000/svg" xmlns:xlink="http://www.w3.org/1999/xlink" x="0px" y="0px" width="475" height="600" viewBox="0, 0, 950, 1200">
  <g id="Leaf">
    <path d="M879.093,32.67 C1092.202,782.29 452.202,1290.29 208.202,939.29 C-220.798,789.29 245.202,71.29 879.093,32.67" fill="#8EA644"/>
    <path d="M864.056,60.235 L658.912,650.361 L502.485,463.167 L438.854,650.361 L360.641,576.014 L208.192,942.769" fill-opacity="0" stroke="#375C17" stroke-width="75" stroke-linecap="round"/>
    <path d="M879.593,33.17 C1092.702,782.79 379.956,1310.602 215.535,928.967 C-254.311,785.63 245.702,71.79 879.593,33.17" fill-opacity="0" stroke="#5B8C17" stroke-width="50" stroke-linecap="round" stroke-linejoin="round"/>
    <path d="M193.333,885 C200.824,884.465 263.428,907.934 258.607,919.324 C242.566,957.218 202.053,1051.805 189.666,1176.8 C187.34,1200.269 48.317,1159.437 64.386,1133.877 C145.479,1004.891 188.347,889.783 190.17,888.571" fill="#355C17"/>
  </g>
  <defs/>
</svg>
